<svg width="171" height="35" viewBox="0 0 171 35" fill="none" xmlns="http://www.w3.org/2000/svg">
<path d="M65.4634 13.2727V16.3409H56.5945V13.2727H65.4634ZM58.608 9.74432H62.6925V23.4744C62.6925 23.8516 62.75 24.1456 62.8651 24.3565C62.9801 24.5611 63.1399 24.7049 63.3445 24.788C63.5554 24.8711 63.7983 24.9126 64.0732 24.9126C64.2649 24.9126 64.4567 24.8967 64.6484 24.8647C64.8402 24.8263 64.9872 24.7976 65.0895 24.7784L65.7319 27.8178C65.5273 27.8817 65.2397 27.9553 64.869 28.0384C64.4982 28.1278 64.0476 28.1822 63.517 28.2013C62.5327 28.2397 61.6697 28.1087 60.9283 27.8082C60.1932 27.5078 59.6211 27.0412 59.212 26.4084C58.8029 25.7756 58.6016 24.9766 58.608 24.0114V9.74432ZM70.3758 33.5227C69.858 33.5227 69.3722 33.4812 68.9184 33.3981C68.4709 33.3214 68.1002 33.2223 67.8062 33.1009L68.7266 30.0518C69.206 30.1989 69.6375 30.2788 70.021 30.2915C70.4109 30.3043 70.7465 30.2148 71.0278 30.0231C71.3154 29.8313 71.5487 29.5053 71.7277 29.0451L71.9674 28.4219L66.6844 13.2727H70.9798L74.0288 24.0881H74.1822L77.26 13.2727H81.5842L75.8601 29.5916C75.5853 30.3842 75.2114 31.0746 74.7383 31.6626C74.2717 32.2571 73.6805 32.7141 72.9646 33.0337C72.2486 33.3597 71.3857 33.5227 70.3758 33.5227ZM83.4044 33.5227V13.2727H87.4314V15.7464H87.6136C87.7926 15.3501 88.0514 14.9474 88.3902 14.5384C88.7354 14.1229 89.1828 13.7777 89.7325 13.5028C90.2887 13.2216 90.979 13.081 91.8036 13.081C92.8774 13.081 93.8682 13.3622 94.7759 13.9247C95.6835 14.4808 96.409 15.3214 96.9524 16.4464C97.4957 17.565 97.7674 18.968 97.7674 20.6555C97.7674 22.2983 97.5021 23.6854 96.9715 24.8168C96.4474 25.9418 95.7315 26.7951 94.8238 27.3768C93.9225 27.9521 92.9126 28.2397 91.794 28.2397C91.0014 28.2397 90.327 28.1087 89.7709 27.8466C89.2212 27.5845 88.7705 27.2553 88.419 26.859C88.0674 26.4563 87.799 26.0504 87.6136 25.6413H87.4889V33.5227H83.4044ZM87.4026 20.6364C87.4026 21.5121 87.5241 22.2759 87.767 22.9279C88.0099 23.5799 88.3615 24.0881 88.8217 24.4524C89.2819 24.8104 89.8412 24.9893 90.4996 24.9893C91.1644 24.9893 91.7269 24.8072 92.1871 24.4428C92.6473 24.0721 92.9957 23.5607 93.2322 22.9087C93.4751 22.2504 93.5965 21.4929 93.5965 20.6364C93.5965 19.7862 93.4783 19.0384 93.2418 18.3928C93.0053 17.7472 92.6569 17.2422 92.1967 16.8778C91.7365 16.5135 91.1708 16.3313 90.4996 16.3313C89.8348 16.3313 89.2723 16.5071 88.8121 16.8587C88.3583 17.2102 88.0099 17.7088 87.767 18.3544C87.5241 19 87.4026 19.7607 87.4026 20.6364ZM106.932 28.2876C105.417 28.2876 104.113 27.9808 103.02 27.3672C101.933 26.7472 101.096 25.8714 100.508 24.7401C99.9199 23.6023 99.6259 22.2567 99.6259 20.7035C99.6259 19.1886 99.9199 17.859 100.508 16.7148C101.096 15.5707 101.924 14.679 102.991 14.0398C104.065 13.4006 105.324 13.081 106.769 13.081C107.741 13.081 108.645 13.2376 109.482 13.5508C110.326 13.8576 111.061 14.321 111.688 14.9411C112.321 15.5611 112.813 16.3409 113.164 17.2805C113.516 18.2138 113.692 19.3068 113.692 20.5597V21.6815H101.256V19.1502H109.847C109.847 18.5621 109.719 18.0412 109.463 17.5874C109.208 17.1335 108.853 16.7788 108.399 16.5231C107.952 16.261 107.431 16.13 106.836 16.13C106.216 16.13 105.666 16.2738 105.187 16.5614C104.714 16.8427 104.343 17.223 104.075 17.7024C103.806 18.1754 103.669 18.7028 103.662 19.2844V21.6911C103.662 22.4197 103.797 23.0494 104.065 23.5799C104.34 24.1104 104.727 24.5195 105.225 24.8072C105.724 25.0948 106.315 25.2386 106.999 25.2386C107.453 25.2386 107.868 25.1747 108.246 25.0469C108.623 24.919 108.946 24.7273 109.214 24.4716C109.482 24.2159 109.687 23.9027 109.828 23.532L113.605 23.7812C113.414 24.6889 113.02 25.4815 112.426 26.1591C111.838 26.8303 111.077 27.3544 110.144 27.7315C109.217 28.1023 108.146 28.2876 106.932 28.2876ZM128.341 17.4723L124.601 17.7024C124.537 17.3828 124.4 17.0952 124.189 16.8395C123.978 16.5774 123.7 16.3697 123.355 16.2163C123.016 16.0565 122.61 15.9766 122.137 15.9766C121.504 15.9766 120.971 16.1108 120.536 16.3793C120.101 16.6413 119.884 16.9929 119.884 17.4339C119.884 17.7855 120.025 18.0827 120.306 18.3256C120.587 18.5685 121.07 18.7635 121.754 18.9105L124.419 19.4474C125.851 19.7415 126.918 20.2145 127.622 20.8665C128.325 21.5185 128.676 22.375 128.676 23.4361C128.676 24.4013 128.392 25.2482 127.823 25.9769C127.26 26.7056 126.487 27.2745 125.503 27.6836C124.525 28.0863 123.396 28.2876 122.118 28.2876C120.168 28.2876 118.615 27.8817 117.458 27.07C116.308 26.2518 115.633 25.1396 115.435 23.7333L119.452 23.5224C119.574 24.1168 119.868 24.5707 120.335 24.8839C120.801 25.1907 121.399 25.3441 122.128 25.3441C122.843 25.3441 123.419 25.2067 123.853 24.9318C124.294 24.6506 124.518 24.2894 124.525 23.8484C124.518 23.4776 124.362 23.174 124.055 22.9375C123.748 22.6946 123.275 22.5092 122.636 22.3814L120.085 21.8732C118.647 21.5856 117.576 21.087 116.873 20.3775C116.177 19.668 115.828 18.7635 115.828 17.6641C115.828 16.718 116.084 15.9031 116.595 15.2191C117.113 14.5352 117.838 14.0078 118.772 13.6371C119.711 13.2663 120.811 13.081 122.07 13.081C123.93 13.081 125.394 13.4741 126.461 14.2603C127.535 15.0465 128.162 16.1172 128.341 17.4723ZM138.812 13.2727V16.3409H129.943V13.2727H138.812ZM131.956 9.74432H136.041V23.4744C136.041 23.8516 136.098 24.1456 136.213 24.3565C136.328 24.5611 136.488 24.7049 136.693 24.788C136.904 24.8711 137.147 24.9126 137.421 24.9126C137.613 24.9126 137.805 24.8967 137.997 24.8647C138.188 24.8263 138.335 24.7976 138.438 24.7784L139.08 27.8178C138.876 27.8817 138.588 27.9553 138.217 28.0384C137.846 28.1278 137.396 28.1822 136.865 28.2013C135.881 28.2397 135.018 28.1087 134.277 27.8082C133.541 27.5078 132.969 27.0412 132.56 26.4084C132.151 25.7756 131.95 24.9766 131.956 24.0114V9.74432ZM147.756 28.2876C146.241 28.2876 144.937 27.9808 143.844 27.3672C142.757 26.7472 141.92 25.8714 141.332 24.7401C140.744 23.6023 140.45 22.2567 140.45 20.7035C140.45 19.1886 140.744 17.859 141.332 16.7148C141.92 15.5707 142.748 14.679 143.815 14.0398C144.889 13.4006 146.148 13.081 147.593 13.081C148.564 13.081 149.469 13.2376 150.306 13.5508C151.15 13.8576 151.885 14.321 152.511 14.9411C153.144 15.5611 153.636 16.3409 153.988 17.2805C154.34 18.2138 154.515 19.3068 154.515 20.5597V21.6815H142.08V19.1502H150.671C150.671 18.5621 150.543 18.0412 150.287 17.5874C150.031 17.1335 149.677 16.7788 149.223 16.5231C148.775 16.261 148.254 16.13 147.66 16.13C147.04 16.13 146.49 16.2738 146.011 16.5614C145.538 16.8427 145.167 17.223 144.899 17.7024C144.63 18.1754 144.493 18.7028 144.486 19.2844V21.6911C144.486 22.4197 144.62 23.0494 144.889 23.5799C145.164 24.1104 145.551 24.5195 146.049 24.8072C146.548 25.0948 147.139 25.2386 147.823 25.2386C148.277 25.2386 148.692 25.1747 149.069 25.0469C149.446 24.919 149.769 24.7273 150.038 24.4716C150.306 24.2159 150.511 23.9027 150.651 23.532L154.429 23.7812C154.237 24.6889 153.844 25.4815 153.25 26.1591C152.662 26.8303 151.901 27.3544 150.968 27.7315C150.041 28.1023 148.97 28.2876 147.756 28.2876ZM156.911 28V13.2727H160.871V15.8423H161.024C161.293 14.9283 161.743 14.2379 162.376 13.7713C163.009 13.2983 163.738 13.0618 164.562 13.0618C164.767 13.0618 164.987 13.0746 165.224 13.1001C165.46 13.1257 165.668 13.1609 165.847 13.2056V16.8299C165.655 16.7724 165.39 16.7212 165.051 16.6765C164.712 16.6317 164.402 16.6094 164.121 16.6094C163.52 16.6094 162.983 16.7404 162.51 17.0025C162.044 17.2582 161.673 17.6161 161.398 18.0763C161.13 18.5366 160.995 19.0671 160.995 19.668V28H156.911Z" fill="white"/>
<path d="M67.9155 12.1591C67.5438 12.1591 67.2183 12.1106 66.9389 12.0135C66.6596 11.9188 66.424 11.7886 66.2322 11.6229C66.0405 11.4571 65.8913 11.2713 65.7848 11.0653L66.3033 10.7244C66.3814 10.8617 66.4856 10.9967 66.6158 11.1293C66.7483 11.2618 66.92 11.3719 67.1307 11.4595C67.3438 11.5471 67.6054 11.5909 67.9155 11.5909C68.3984 11.5909 68.7879 11.4702 69.0838 11.2287C69.3821 10.9872 69.5312 10.612 69.5312 10.103V8.87429H69.4744C69.401 9.04001 69.2957 9.20573 69.1584 9.37145C69.0211 9.5348 68.8411 9.67093 68.6186 9.77983C68.3984 9.88873 68.125 9.94318 67.7983 9.94318C67.3627 9.94318 66.9756 9.83546 66.6371 9.62003C66.3009 9.40459 66.0357 9.09683 65.8416 8.69673C65.6499 8.29427 65.554 7.81487 65.554 7.25852C65.554 6.70691 65.6475 6.22159 65.8345 5.80256C66.0239 5.38352 66.2879 5.05682 66.6264 4.82244C66.965 4.58807 67.3591 4.47088 67.8089 4.47088C68.1428 4.47088 68.4197 4.53007 68.6399 4.64844C68.8601 4.76444 69.0365 4.90885 69.169 5.08168C69.304 5.2545 69.4093 5.42259 69.4851 5.58594H69.549V4.54545H70.1669V10.142C70.1669 10.6037 70.0687 10.9837 69.8722 11.282C69.6757 11.5803 69.4081 11.8004 69.0696 11.9425C68.7311 12.0869 68.3464 12.1591 67.9155 12.1591ZM67.8729 9.36435C68.2232 9.36435 68.5227 9.2803 68.7713 9.11222C69.0199 8.94176 69.2105 8.69792 69.343 8.38068C69.4756 8.06345 69.5419 7.68584 69.5419 7.24787C69.5419 6.82173 69.4768 6.44413 69.3466 6.11506C69.2164 5.78362 69.027 5.5232 68.7784 5.33381C68.5322 5.14205 68.2304 5.04616 67.8729 5.04616C67.5083 5.04616 67.2005 5.14441 66.9496 5.34091C66.6986 5.53741 66.5092 5.80256 66.3814 6.13636C66.2536 6.4678 66.1896 6.8383 66.1896 7.24787C66.1896 7.66454 66.2547 8.03267 66.3849 8.35227C66.5152 8.66951 66.7057 8.91809 66.9567 9.09801C67.2076 9.27557 67.513 9.36435 67.8729 9.36435ZM73.8604 10.1136C73.3893 10.1136 72.9726 9.99408 72.6104 9.75497C72.2506 9.51586 71.9688 9.18561 71.7652 8.7642C71.5616 8.34044 71.4598 7.85156 71.4598 7.29759C71.4598 6.73887 71.5616 6.24763 71.7652 5.82386C71.9688 5.39773 72.2506 5.06629 72.6104 4.82955C72.9726 4.59044 73.3893 4.47088 73.8604 4.47088C74.3315 4.47088 74.747 4.59044 75.1069 4.82955C75.4667 5.06866 75.7484 5.40009 75.952 5.82386C76.158 6.24763 76.261 6.73887 76.261 7.29759C76.261 7.85156 76.1592 8.34044 75.9556 8.7642C75.752 9.18561 75.4691 9.51586 75.1069 9.75497C74.747 9.99408 74.3315 10.1136 73.8604 10.1136ZM73.8604 9.5348C74.2392 9.5348 74.56 9.433 74.8228 9.2294C75.0855 9.0258 75.2844 8.75473 75.4194 8.41619C75.5567 8.07765 75.6253 7.70478 75.6253 7.29759C75.6253 6.89039 75.5567 6.51634 75.4194 6.17543C75.2844 5.83452 75.0855 5.56108 74.8228 5.35511C74.56 5.14915 74.2392 5.04616 73.8604 5.04616C73.484 5.04616 73.1632 5.14915 72.898 5.35511C72.6353 5.56108 72.4352 5.83452 72.2979 6.17543C72.163 6.51634 72.0955 6.89039 72.0955 7.29759C72.0955 7.70478 72.163 8.07765 72.2979 8.41619C72.4352 8.75473 72.6353 9.0258 72.898 9.2294C73.1608 9.433 73.4816 9.5348 73.8604 9.5348ZM82.5054 4.54545V5.09588H79.8243V4.54545H82.5054ZM80.6624 10V3.74645C80.6624 3.45289 80.7298 3.20549 80.8648 3.00426C81.0021 2.80303 81.1808 2.65033 81.401 2.54616C81.6212 2.442 81.8544 2.38991 82.1006 2.38991C82.2663 2.38991 82.4036 2.40412 82.5125 2.43253C82.6238 2.45857 82.7114 2.48461 82.7753 2.51065L82.5906 3.06463C82.5433 3.05043 82.4853 3.03385 82.4166 3.01491C82.348 2.99598 82.2616 2.98651 82.1574 2.98651C81.8828 2.98651 81.6709 3.06345 81.5217 3.21733C81.3726 3.37121 81.298 3.59138 81.298 3.87784L81.2945 10H80.6624ZM85.0439 10.1243C84.7148 10.1243 84.4142 10.0604 84.1419 9.93253C83.8697 9.80232 83.653 9.61529 83.492 9.37145C83.3311 9.12524 83.2506 8.82694 83.2506 8.47656C83.2506 8.20668 83.3015 7.9794 83.4033 7.79474C83.5051 7.61009 83.6495 7.45857 83.8365 7.3402C84.0235 7.22183 84.2449 7.12831 84.5006 7.05966C84.7563 6.991 85.038 6.93774 85.3457 6.89986C85.6511 6.86198 85.9092 6.82884 86.1199 6.80043C86.333 6.77202 86.4951 6.72704 86.6064 6.66548C86.7177 6.60393 86.7733 6.5045 86.7733 6.36719V6.23935C86.7733 5.86766 86.662 5.57528 86.4395 5.36222C86.2193 5.14678 85.9021 5.03906 85.4878 5.03906C85.0948 5.03906 84.774 5.12547 84.5254 5.2983C84.2792 5.47112 84.1064 5.67472 84.007 5.90909L83.4068 5.69247C83.5299 5.39418 83.7004 5.15625 83.9182 4.97869C84.136 4.79877 84.3798 4.66974 84.6497 4.59162C84.9196 4.51113 85.193 4.47088 85.47 4.47088C85.6784 4.47088 85.895 4.49811 86.1199 4.55256C86.3472 4.60701 86.5579 4.7017 86.752 4.83665C86.9461 4.96922 87.1036 5.15507 87.2243 5.39418C87.345 5.63092 87.4054 5.93158 87.4054 6.29616V10H86.7733V9.13707H86.7342C86.6585 9.29806 86.546 9.45431 86.3969 9.60582C86.2477 9.75734 86.0607 9.88163 85.8358 9.97869C85.6109 10.0758 85.3469 10.1243 85.0439 10.1243ZM85.1291 9.54545C85.4653 9.54545 85.7565 9.47088 86.0027 9.32173C86.2489 9.17259 86.4383 8.97491 86.5709 8.72869C86.7058 8.48011 86.7733 8.20668 86.7733 7.90838V7.12003C86.7259 7.16501 86.6466 7.20526 86.5354 7.24077C86.4265 7.27628 86.2998 7.30824 86.1554 7.33665C86.0134 7.36269 85.8713 7.38518 85.7293 7.40412C85.5872 7.42306 85.4594 7.43963 85.3457 7.45384C85.038 7.49171 84.7752 7.5509 84.5574 7.63139C84.3396 7.71188 84.1727 7.82315 84.0567 7.9652C83.9407 8.10488 83.8827 8.2848 83.8827 8.50497C83.8827 8.83641 84.001 9.09328 84.2378 9.27557C84.4745 9.45549 84.7716 9.54545 85.1291 9.54545ZM92.6516 5.74219L92.0728 5.90554C92.016 5.74219 91.9355 5.59422 91.8313 5.46165C91.7272 5.32907 91.591 5.22372 91.4229 5.1456C91.2572 5.06747 91.0513 5.02841 90.805 5.02841C90.4357 5.02841 90.1327 5.116 89.896 5.29119C89.6592 5.46638 89.5408 5.69247 89.5408 5.96946C89.5408 6.20384 89.6213 6.39441 89.7823 6.54119C89.9457 6.68561 90.1966 6.80043 90.5352 6.88565L91.359 7.08807C91.8159 7.19934 92.158 7.37571 92.3853 7.61719C92.6149 7.85866 92.7298 8.1617 92.7298 8.52628C92.7298 8.83404 92.6445 9.10748 92.4741 9.34659C92.3036 9.5857 92.0657 9.77391 91.7603 9.91122C91.4573 10.0462 91.1057 10.1136 90.7056 10.1136C90.1729 10.1136 89.7338 9.99408 89.3881 9.75497C89.0425 9.51349 88.8211 9.16548 88.7241 8.71094L89.3313 8.56179C89.4094 8.88613 89.5621 9.13116 89.7894 9.29688C90.0191 9.46259 90.3209 9.54545 90.695 9.54545C91.114 9.54545 91.449 9.45194 91.6999 9.26491C91.9509 9.07552 92.0763 8.83878 92.0763 8.55469C92.0763 8.33452 92.003 8.14986 91.8562 8.00071C91.7094 7.8492 91.4869 7.73793 91.1886 7.6669L90.2972 7.45384C89.8237 7.3402 89.4734 7.16027 89.2461 6.91406C89.0188 6.66785 88.9052 6.36245 88.9052 5.99787C88.9052 5.69721 88.9869 5.43324 89.1502 5.20597C89.3136 4.97633 89.5385 4.7964 89.8249 4.66619C90.1114 4.53598 90.4381 4.47088 90.805 4.47088C91.3046 4.47088 91.7035 4.58452 92.0018 4.81179C92.3024 5.03669 92.5191 5.34683 92.6516 5.74219ZM96.1623 4.54545V5.09588H93.5593V4.54545H96.1623ZM94.3725 3.23864H95.0081V8.57599C95.0081 8.80327 95.0472 8.98201 95.1253 9.11222C95.2034 9.24006 95.3052 9.3312 95.4307 9.38565C95.5562 9.43774 95.69 9.46378 95.832 9.46378C95.9149 9.46378 95.9859 9.45904 96.0451 9.44957C96.1042 9.43774 96.1563 9.4259 96.2013 9.41406L96.3363 9.9858C96.2747 10.0095 96.1989 10.0308 96.109 10.0497C96.019 10.071 95.9078 10.0817 95.7752 10.0817C95.5432 10.0817 95.3194 10.0308 95.104 9.92898C94.8909 9.82718 94.7158 9.67566 94.5784 9.47443C94.4411 9.2732 94.3725 9.02344 94.3725 8.72514V3.23864ZM99.6445 10.1136C99.1355 10.1136 98.6951 9.99527 98.3234 9.75852C97.9518 9.51941 97.6641 9.18916 97.4605 8.76776C97.2593 8.34399 97.1587 7.8563 97.1587 7.30469C97.1587 6.75545 97.2593 6.26776 97.4605 5.84162C97.6641 5.41312 97.9446 5.07812 98.3021 4.83665C98.662 4.5928 99.0775 4.47088 99.5486 4.47088C99.8445 4.47088 100.13 4.52533 100.404 4.63423C100.679 4.74077 100.925 4.9053 101.143 5.12784C101.363 5.34801 101.537 5.62618 101.665 5.96236C101.793 6.29616 101.857 6.69152 101.857 7.14844V7.46094H97.5955V6.90341H101.211C101.211 6.55303 101.139 6.23816 100.997 5.95881C100.858 5.67708 100.662 5.45455 100.412 5.29119C100.163 5.12784 99.8753 5.04616 99.5486 5.04616C99.2029 5.04616 98.8987 5.13849 98.6359 5.32315C98.3732 5.50781 98.1672 5.75166 98.018 6.05469C97.8713 6.35772 97.7967 6.68916 97.7943 7.04901V7.38281C97.7943 7.81605 97.8689 8.19484 98.018 8.51918C98.1696 8.84115 98.3838 9.09091 98.6608 9.26847C98.9378 9.44602 99.2657 9.5348 99.6445 9.5348C99.9025 9.5348 100.129 9.49455 100.323 9.41406C100.519 9.33357 100.684 9.22585 100.816 9.09091C100.951 8.9536 101.053 8.80327 101.122 8.63991L101.722 8.83523C101.639 9.06487 101.503 9.27675 101.313 9.47088C101.126 9.66501 100.892 9.82126 100.61 9.93963C100.331 10.0556 100.009 10.1136 99.6445 10.1136ZM103.15 10V4.54545H103.764V5.38352H103.81C103.919 5.1089 104.109 4.88755 104.378 4.71946C104.651 4.54901 104.958 4.46378 105.302 4.46378C105.354 4.46378 105.412 4.46496 105.476 4.46733C105.54 4.4697 105.593 4.47206 105.636 4.47443V5.11719C105.607 5.11245 105.557 5.10535 105.486 5.09588C105.415 5.08641 105.338 5.08168 105.256 5.08168C104.971 5.08168 104.718 5.14205 104.496 5.26278C104.275 5.38116 104.101 5.54569 103.974 5.75639C103.846 5.96709 103.782 6.20739 103.782 6.47727V10H103.15Z" fill="#EBEBEB" fill-opacity="0.6"/>
<g clip-path="url(#clip0_24_2)">
<path d="M25 16.9402C20.5176 12.7964 18.0905 19.322 13.0566 16.5972C13.6656 19.7565 20.7037 24.5001 25 18.8437C29.296 24.5001 36.3341 19.7564 36.9433 16.5972C31.9094 19.3219 29.4823 12.7964 25 16.9402Z" fill="white"/>
<path d="M20.0656 22.0354C19.5304 22.0354 18.9813 21.9707 18.4217 21.8399C17.0327 21.5153 15.6472 20.7861 14.5205 19.7866C13.435 18.8237 12.7022 17.6996 12.5101 16.7026C12.4694 16.4913 12.5541 16.2754 12.7275 16.1482C12.9011 16.0211 13.1324 16.0052 13.3216 16.1076C15.4651 17.2678 17.0476 16.58 18.723 15.8517C19.6934 15.43 20.6969 14.9938 21.786 14.9659C22.8954 14.9368 23.9512 15.3427 25 16.2019C26.0488 15.3426 27.1049 14.937 28.214 14.9659C29.303 14.9938 30.3066 15.4299 31.277 15.8517C32.9525 16.58 34.535 17.2678 36.6784 16.1076C36.8676 16.0052 37.0989 16.021 37.2725 16.1483C37.446 16.2755 37.5307 16.4913 37.4899 16.7026C37.2977 17.6997 36.5648 18.8238 35.4793 19.7867C34.3524 20.7863 32.9669 21.5155 31.5779 21.84C29.0585 22.4289 26.7465 21.6766 25 19.7192C23.6412 21.2419 21.9401 22.0353 20.0656 22.0354ZM14.0943 17.6291C14.9271 18.9256 16.6636 20.2858 18.6751 20.7559C20.2921 21.1336 22.625 21.0503 24.5567 18.507C24.662 18.3684 24.826 18.287 25 18.287C25.174 18.287 25.3381 18.3684 25.4433 18.507C27.3748 21.0502 29.7077 21.1337 31.3245 20.7559C33.3361 20.2859 35.0728 18.9256 35.9056 17.6291C33.9065 18.2087 32.2895 17.5058 30.8332 16.8728C28.9558 16.0568 27.4729 15.4123 25.3779 17.349C25.1646 17.5462 24.8355 17.5462 24.6221 17.349C22.5271 15.4122 21.0443 16.0568 19.1668 16.8728C18.0924 17.3398 16.9302 17.8448 15.5921 17.8449C15.1164 17.8449 14.6186 17.7811 14.0943 17.6291Z" fill="white"/>
<rect x="13.75" y="12.25" width="3.75" height="1.25" rx="0.625" fill="white"/>
<rect x="18.75" y="12.25" width="3.75" height="1.25" rx="0.625" fill="white"/>
<rect x="28.75" y="12.25" width="3.75" height="1.25" rx="0.625" fill="white"/>
<rect x="33.75" y="12.25" width="3.75" height="1.25" rx="0.625" fill="white"/>
<rect x="23.75" y="12.25" width="3.75" height="1.25" rx="0.625" fill="white"/>
<rect x="16.25" y="23.5" width="3.75" height="1.25" rx="0.625" fill="white"/>
<rect x="26.25" y="23.5" width="3.75" height="1.25" rx="0.625" fill="white"/>
<rect x="31.25" y="23.5" width="3.75" height="1.25" rx="0.625" fill="white"/>
<rect x="21.25" y="23.5" width="3.75" height="1.25" rx="0.625" fill="white"/>
<rect x="13.75" y="26" width="23.75" height="1.25" rx="0.625" fill="white"/>
</g>
<rect x="11.25" y="23.5" width="3.75" height="1.25" rx="0.625" fill="white"/>
<rect x="3.75" y="23.5" width="5" height="1.25" rx="0.625" fill="white"/>
<rect x="3.75" y="19.75" width="3.75" height="1.25" rx="0.625" fill="white"/>
<rect x="8.75" y="19.75" width="3.75" height="1.25" rx="0.625" fill="white"/>
<rect x="3.75" y="26" width="2.5" height="1.25" rx="0.625" fill="white"/>
<rect x="7.5" y="26" width="2.5" height="1.25" rx="0.625" fill="white"/>
<rect x="11.25" y="26" width="1.25" height="1.25" rx="0.625" fill="white"/>
<rect x="38.75" y="26" width="3.75" height="1.25" rx="0.625" fill="white"/>
<rect x="43.75" y="26" width="2.5" height="1.25" rx="0.625" fill="white"/>
<rect x="3.75" y="14.75" width="6.25" height="1.25" rx="0.625" fill="white"/>
<rect x="3.75" y="17.25" width="5" height="1.25" rx="0.625" fill="white"/>
<rect x="38.75" y="12.25" width="3.75" height="1.25" rx="0.625" fill="white"/>
<rect x="43.75" y="12.25" width="3.75" height="1.25" rx="0.625" fill="white"/>
<rect x="0.5" y="9" width="49" height="20.25" rx="3.5" stroke="white"/>
<rect x="3.75" y="12.25" width="8.75" height="1.25" rx="0.625" fill="white"/>
<rect x="38.75" y="14.75" width="8.75" height="1.25" rx="0.625" fill="white"/>
<rect x="41.25" y="17.25" width="6.25" height="1.25" rx="0.625" fill="white"/>
<rect x="42.5" y="19.75" width="5" height="1.25" rx="0.625" fill="white"/>
<rect x="41.25" y="23.5" width="6.25" height="1.25" rx="0.625" fill="white"/>
<rect x="38.75" y="19.75" width="2.5" height="1.25" rx="0.625" fill="white"/>
<rect x="37.5" y="23.5" width="2.5" height="1.25" rx="0.625" fill="white"/>
<defs>
<clipPath id="clip0_24_2">
<rect width="25" height="25" fill="white" transform="translate(12.5 6)"/>
</clipPath>
</defs>
</svg>
