<svg width="249" height="53" viewBox="0 0 249 53" fill="none" xmlns="http://www.w3.org/2000/svg">
<path d="M90.2784 16.3821V11.8182H111.781V16.3821H103.766V38H98.294V16.3821H90.2784ZM115.972 45.3636C115.282 45.3636 114.634 45.3082 114.029 45.1974C113.433 45.0952 112.938 44.9631 112.546 44.8011L113.774 40.7358C114.413 40.9318 114.988 41.0384 115.499 41.0554C116.019 41.0724 116.467 40.9531 116.842 40.6974C117.225 40.4418 117.536 40.0071 117.775 39.3935L118.095 38.5625L111.051 18.3636H116.778L120.843 32.7841H121.048L125.151 18.3636H130.917L123.285 40.1222C122.918 41.179 122.42 42.0994 121.789 42.8835C121.167 43.6761 120.379 44.2855 119.424 44.7116C118.47 45.1463 117.319 45.3636 115.972 45.3636ZM133.344 45.3636V18.3636H138.713V21.6619H138.956C139.195 21.1335 139.54 20.5966 139.992 20.0511C140.452 19.4972 141.048 19.0369 141.781 18.6705C142.523 18.2955 143.443 18.108 144.543 18.108C145.975 18.108 147.296 18.483 148.506 19.233C149.716 19.9744 150.683 21.0952 151.408 22.5952C152.132 24.0866 152.494 25.9574 152.494 28.2074C152.494 30.3977 152.141 32.2472 151.433 33.7557C150.735 35.2557 149.78 36.3935 148.57 37.169C147.368 37.9361 146.021 38.3196 144.53 38.3196C143.473 38.3196 142.574 38.1449 141.833 37.7955C141.1 37.446 140.499 37.0071 140.03 36.4787C139.561 35.9418 139.203 35.4006 138.956 34.8551H138.79V45.3636H133.344ZM138.675 28.1818C138.675 29.3494 138.837 30.3679 139.161 31.2372C139.485 32.1065 139.953 32.7841 140.567 33.2699C141.181 33.7472 141.926 33.9858 142.804 33.9858C143.691 33.9858 144.441 33.7429 145.054 33.2571C145.668 32.7628 146.132 32.081 146.448 31.2116C146.771 30.3338 146.933 29.3239 146.933 28.1818C146.933 27.0483 146.776 26.0511 146.46 25.1903C146.145 24.3295 145.681 23.6562 145.067 23.1705C144.453 22.6847 143.699 22.4418 142.804 22.4418C141.918 22.4418 141.168 22.6761 140.554 23.1449C139.949 23.6136 139.485 24.2784 139.161 25.1392C138.837 26 138.675 27.0142 138.675 28.1818ZM164.714 38.3835C162.694 38.3835 160.956 37.9744 159.498 37.1562C158.049 36.3295 156.933 35.1619 156.149 33.6534C155.365 32.1364 154.973 30.3423 154.973 28.2713C154.973 26.2514 155.365 24.4787 156.149 22.9531C156.933 21.4276 158.036 20.2386 159.46 19.3864C160.892 18.5341 162.571 18.108 164.497 18.108C165.792 18.108 166.998 18.3168 168.115 18.7344C169.24 19.1435 170.22 19.7614 171.055 20.5881C171.899 21.4148 172.555 22.4545 173.024 23.7074C173.492 24.9517 173.727 26.4091 173.727 28.0795V29.5753H157.146V26.2003H168.6C168.6 25.4162 168.43 24.7216 168.089 24.1165C167.748 23.5114 167.275 23.0384 166.67 22.6974C166.073 22.348 165.379 22.1733 164.586 22.1733C163.759 22.1733 163.027 22.3651 162.387 22.7486C161.757 23.1236 161.262 23.6307 160.904 24.2699C160.546 24.9006 160.363 25.6037 160.355 26.3793V29.5881C160.355 30.5597 160.534 31.3991 160.892 32.1065C161.258 32.8139 161.774 33.3594 162.438 33.7429C163.103 34.1264 163.892 34.3182 164.804 34.3182C165.409 34.3182 165.963 34.233 166.465 34.0625C166.968 33.892 167.399 33.6364 167.757 33.2955C168.115 32.9545 168.387 32.5369 168.575 32.0426L173.612 32.375C173.356 33.5852 172.832 34.642 172.039 35.5455C171.255 36.4403 170.241 37.1392 168.997 37.642C167.761 38.1364 166.333 38.3835 164.714 38.3835ZM193.259 23.9631L188.273 24.2699C188.188 23.8437 188.005 23.4602 187.723 23.1193C187.442 22.7699 187.071 22.4929 186.611 22.2884C186.159 22.0753 185.618 21.9688 184.988 21.9688C184.144 21.9688 183.432 22.1477 182.853 22.5057C182.273 22.8551 181.983 23.3239 181.983 23.9119C181.983 24.3807 182.171 24.777 182.546 25.1009C182.921 25.4247 183.564 25.6847 184.476 25.8807L188.03 26.5966C189.939 26.9886 191.363 27.6193 192.3 28.4886C193.238 29.358 193.706 30.5 193.706 31.9148C193.706 33.2017 193.327 34.331 192.569 35.3026C191.819 36.2741 190.787 37.0327 189.475 37.5781C188.171 38.1151 186.667 38.3835 184.962 38.3835C182.363 38.3835 180.292 37.8423 178.749 36.7599C177.215 35.669 176.316 34.1861 176.051 32.3111L181.408 32.0298C181.57 32.8224 181.962 33.4276 182.584 33.8452C183.206 34.2543 184.003 34.4588 184.975 34.4588C185.929 34.4588 186.696 34.2756 187.276 33.9091C187.864 33.5341 188.162 33.0526 188.171 32.4645C188.162 31.9702 187.953 31.5653 187.544 31.25C187.135 30.9261 186.505 30.679 185.652 30.5085L182.252 29.831C180.334 29.4474 178.907 28.7827 177.969 27.8366C177.04 26.8906 176.576 25.6847 176.576 24.2188C176.576 22.9574 176.917 21.8707 177.598 20.9588C178.289 20.0469 179.256 19.3438 180.5 18.8494C181.753 18.3551 183.219 18.108 184.898 18.108C187.378 18.108 189.33 18.6321 190.753 19.6804C192.185 20.7287 193.02 22.1562 193.259 23.9631ZM207.22 18.3636V22.4545H195.395V18.3636H207.22ZM198.08 13.6591H203.526V31.9659C203.526 32.4687 203.602 32.8608 203.756 33.142C203.909 33.4148 204.122 33.6065 204.395 33.7173C204.676 33.8281 205 33.8835 205.367 33.8835C205.622 33.8835 205.878 33.8622 206.134 33.8196C206.389 33.7685 206.585 33.7301 206.722 33.7045L207.578 37.7571C207.305 37.8423 206.922 37.9403 206.428 38.0511C205.933 38.1705 205.332 38.2429 204.625 38.2685C203.313 38.3196 202.162 38.1449 201.173 37.7443C200.193 37.3437 199.43 36.7216 198.885 35.8778C198.34 35.0341 198.071 33.9687 198.08 32.6818V13.6591ZM219.146 38.3835C217.126 38.3835 215.387 37.9744 213.93 37.1562C212.481 36.3295 211.364 35.1619 210.58 33.6534C209.796 32.1364 209.404 30.3423 209.404 28.2713C209.404 26.2514 209.796 24.4787 210.58 22.9531C211.364 21.4276 212.468 20.2386 213.891 19.3864C215.323 18.5341 217.002 18.108 218.928 18.108C220.224 18.108 221.43 18.3168 222.546 18.7344C223.671 19.1435 224.651 19.7614 225.487 20.5881C226.33 21.4148 226.987 22.4545 227.455 23.7074C227.924 24.9517 228.159 26.4091 228.159 28.0795V29.5753H211.578V26.2003H223.032C223.032 25.4162 222.862 24.7216 222.521 24.1165C222.18 23.5114 221.707 23.0384 221.102 22.6974C220.505 22.348 219.811 22.1733 219.018 22.1733C218.191 22.1733 217.458 22.3651 216.819 22.7486C216.188 23.1236 215.694 23.6307 215.336 24.2699C214.978 24.9006 214.795 25.6037 214.786 26.3793V29.5881C214.786 30.5597 214.965 31.3991 215.323 32.1065C215.69 32.8139 216.205 33.3594 216.87 33.7429C217.535 34.1264 218.323 34.3182 219.235 34.3182C219.84 34.3182 220.394 34.233 220.897 34.0625C221.4 33.892 221.83 33.6364 222.188 33.2955C222.546 32.9545 222.819 32.5369 223.007 32.0426L228.043 32.375C227.788 33.5852 227.264 34.642 226.471 35.5455C225.687 36.4403 224.673 37.1392 223.428 37.642C222.193 38.1364 220.765 38.3835 219.146 38.3835ZM231.353 38V18.3636H236.632V21.7898H236.837C237.195 20.571 237.796 19.6506 238.639 19.0284C239.483 18.3977 240.455 18.0824 241.554 18.0824C241.827 18.0824 242.121 18.0994 242.436 18.1335C242.752 18.1676 243.029 18.2145 243.267 18.2741V23.1065C243.012 23.0298 242.658 22.9616 242.206 22.902C241.754 22.8423 241.341 22.8125 240.966 22.8125C240.165 22.8125 239.449 22.9872 238.818 23.3366C238.196 23.6776 237.702 24.1548 237.335 24.7685C236.978 25.3821 236.799 26.0895 236.799 26.8906V38H231.353Z" fill="white"/>
<path d="M121.082 17.0227C120.561 17.0227 120.106 16.9548 119.714 16.8189C119.323 16.6863 118.994 16.504 118.725 16.272C118.457 16.04 118.248 15.7798 118.099 15.4915L118.825 15.0142C118.934 15.2064 119.08 15.3954 119.262 15.581C119.448 15.7666 119.688 15.9207 119.983 16.0433C120.281 16.166 120.647 16.2273 121.082 16.2273C121.758 16.2273 122.303 16.0582 122.717 15.7202C123.135 15.3821 123.344 14.8568 123.344 14.1442V12.424H123.264C123.161 12.656 123.014 12.888 122.822 13.12C122.629 13.3487 122.378 13.5393 122.066 13.6918C121.758 13.8442 121.375 13.9205 120.918 13.9205C120.308 13.9205 119.766 13.7696 119.292 13.468C118.821 13.1664 118.45 12.7356 118.178 12.1754C117.91 11.612 117.776 10.9408 117.776 10.1619C117.776 9.38968 117.906 8.71023 118.168 8.12358C118.433 7.53693 118.803 7.07955 119.277 6.75142C119.751 6.4233 120.303 6.25923 120.933 6.25923C121.4 6.25923 121.788 6.34209 122.096 6.50781C122.404 6.67022 122.651 6.8724 122.837 7.11435C123.026 7.3563 123.173 7.59162 123.279 7.82031H123.369V6.36364H124.234V14.1989C124.234 14.8452 124.096 15.3771 123.821 15.7947C123.546 16.2124 123.171 16.5206 122.697 16.7195C122.223 16.9216 121.685 17.0227 121.082 17.0227ZM121.022 13.1101C121.513 13.1101 121.932 12.9924 122.28 12.7571C122.628 12.5185 122.895 12.1771 123.08 11.733C123.266 11.2888 123.359 10.7602 123.359 10.147C123.359 9.55043 123.268 9.02178 123.085 8.56108C122.903 8.09706 122.638 7.73248 122.29 7.46733C121.945 7.19886 121.522 7.06463 121.022 7.06463C120.512 7.06463 120.081 7.20218 119.729 7.47727C119.378 7.75237 119.113 8.12358 118.934 8.59091C118.755 9.05492 118.665 9.57363 118.665 10.147C118.665 10.7304 118.757 11.2457 118.939 11.6932C119.121 12.1373 119.388 12.4853 119.739 12.7372C120.091 12.9858 120.518 13.1101 121.022 13.1101ZM129.405 14.1591C128.745 14.1591 128.162 13.9917 127.655 13.657C127.151 13.3222 126.756 12.8598 126.471 12.2699C126.186 11.6766 126.044 10.9922 126.044 10.2166C126.044 9.43442 126.186 8.74669 126.471 8.15341C126.756 7.55682 127.151 7.0928 127.655 6.76136C128.162 6.42661 128.745 6.25923 129.405 6.25923C130.064 6.25923 130.646 6.42661 131.15 6.76136C131.653 7.09612 132.048 7.56013 132.333 8.15341C132.621 8.74669 132.765 9.43442 132.765 10.2166C132.765 10.9922 132.623 11.6766 132.338 12.2699C132.053 12.8598 131.657 13.3222 131.15 13.657C130.646 13.9917 130.064 14.1591 129.405 14.1591ZM129.405 13.3487C129.935 13.3487 130.384 13.2062 130.752 12.9212C131.12 12.6361 131.398 12.2566 131.587 11.7827C131.779 11.3087 131.875 10.7867 131.875 10.2166C131.875 9.64654 131.779 9.12287 131.587 8.6456C131.398 8.16832 131.12 7.78551 130.752 7.49716C130.384 7.20881 129.935 7.06463 129.405 7.06463C128.878 7.06463 128.428 7.20881 128.057 7.49716C127.689 7.78551 127.409 8.16832 127.217 8.6456C127.028 9.12287 126.934 9.64654 126.934 10.2166C126.934 10.7867 127.028 11.3087 127.217 11.7827C127.409 12.2566 127.689 12.6361 128.057 12.9212C128.425 13.2062 128.874 13.3487 129.405 13.3487ZM141.508 6.36364V7.13423H137.754V6.36364H141.508ZM138.927 14V5.24503C138.927 4.83404 139.022 4.48769 139.211 4.20597C139.403 3.92424 139.653 3.71046 139.961 3.56463C140.27 3.4188 140.596 3.34588 140.941 3.34588C141.173 3.34588 141.365 3.36577 141.517 3.40554C141.673 3.442 141.796 3.47846 141.885 3.51491L141.627 4.29048C141.561 4.2706 141.479 4.2474 141.383 4.22088C141.287 4.19437 141.166 4.18111 141.02 4.18111C140.636 4.18111 140.339 4.28883 140.13 4.50426C139.922 4.7197 139.817 5.02794 139.817 5.42898L139.812 14H138.927ZM145.061 14.174C144.601 14.174 144.18 14.0845 143.799 13.9055C143.418 13.7232 143.114 13.4614 142.889 13.12C142.663 12.7753 142.551 12.3577 142.551 11.8672C142.551 11.4893 142.622 11.1712 142.765 10.9126C142.907 10.6541 143.109 10.442 143.371 10.2763C143.633 10.1106 143.943 9.97964 144.301 9.88352C144.659 9.78741 145.053 9.71283 145.484 9.6598C145.912 9.60677 146.273 9.56037 146.568 9.5206C146.866 9.48082 147.093 9.41785 147.249 9.33168C147.405 9.2455 147.483 9.1063 147.483 8.91406V8.73509C147.483 8.21473 147.327 7.8054 147.015 7.5071C146.707 7.20549 146.263 7.05469 145.683 7.05469C145.133 7.05469 144.684 7.17566 144.336 7.41761C143.991 7.65956 143.749 7.9446 143.61 8.27273L142.77 7.96946C142.942 7.55185 143.181 7.21875 143.485 6.97017C143.79 6.71828 144.132 6.53764 144.51 6.42827C144.887 6.31558 145.27 6.25923 145.658 6.25923C145.95 6.25923 146.253 6.29735 146.568 6.37358C146.886 6.44981 147.181 6.58239 147.453 6.77131C147.725 6.95691 147.945 7.21709 148.114 7.55185C148.283 7.88329 148.368 8.30421 148.368 8.81463V14H147.483V12.7919H147.428C147.322 13.0173 147.164 13.236 146.956 13.4482C146.747 13.6603 146.485 13.8343 146.17 13.9702C145.855 14.1061 145.486 14.174 145.061 14.174ZM145.181 13.3636C145.651 13.3636 146.059 13.2592 146.404 13.0504C146.748 12.8416 147.014 12.5649 147.199 12.2202C147.388 11.8722 147.483 11.4893 147.483 11.0717V9.96804C147.416 10.031 147.305 10.0874 147.15 10.1371C146.997 10.1868 146.82 10.2315 146.618 10.2713C146.419 10.3078 146.22 10.3393 146.021 10.3658C145.822 10.3923 145.643 10.4155 145.484 10.4354C145.053 10.4884 144.685 10.5713 144.38 10.6839C144.075 10.7966 143.842 10.9524 143.679 11.1513C143.517 11.3468 143.436 11.5987 143.436 11.907C143.436 12.371 143.601 12.7306 143.933 12.9858C144.264 13.2377 144.68 13.3636 145.181 13.3636ZM155.712 8.03906L154.902 8.26776C154.822 8.03906 154.71 7.83191 154.564 7.64631C154.418 7.4607 154.227 7.31321 153.992 7.20384C153.76 7.09446 153.472 7.03977 153.127 7.03977C152.61 7.03977 152.186 7.16241 151.854 7.40767C151.523 7.65294 151.357 7.96946 151.357 8.35724C151.357 8.68537 151.47 8.95218 151.695 9.15767C151.924 9.35985 152.275 9.5206 152.749 9.63991L153.903 9.9233C154.542 10.0791 155.021 10.326 155.339 10.6641C155.661 11.0021 155.822 11.4264 155.822 11.9368C155.822 12.3677 155.702 12.7505 155.464 13.0852C155.225 13.42 154.892 13.6835 154.464 13.8757C154.04 14.0646 153.548 14.1591 152.988 14.1591C152.242 14.1591 151.627 13.9917 151.143 13.657C150.659 13.3189 150.35 12.8317 150.214 12.1953L151.064 11.9865C151.173 12.4406 151.387 12.7836 151.705 13.0156C152.027 13.2476 152.449 13.3636 152.973 13.3636C153.56 13.3636 154.029 13.2327 154.38 12.9709C154.731 12.7057 154.907 12.3743 154.907 11.9766C154.907 11.6683 154.804 11.4098 154.599 11.201C154.393 10.9889 154.082 10.8331 153.664 10.7337L152.416 10.4354C151.753 10.2763 151.263 10.0244 150.945 9.67969C150.626 9.33499 150.467 8.90743 150.467 8.39702C150.467 7.97609 150.582 7.60653 150.81 7.28835C151.039 6.96686 151.354 6.71496 151.755 6.53267C152.156 6.35038 152.613 6.25923 153.127 6.25923C153.826 6.25923 154.385 6.41832 154.802 6.73651C155.223 7.05137 155.527 7.48556 155.712 8.03906ZM160.627 6.36364V7.13423H156.983V6.36364H160.627ZM158.121 4.53409H159.011V12.0064C159.011 12.3246 159.066 12.5748 159.175 12.7571C159.285 12.9361 159.427 13.0637 159.603 13.1399C159.779 13.2128 159.966 13.2493 160.165 13.2493C160.281 13.2493 160.38 13.2427 160.463 13.2294C160.546 13.2128 160.619 13.1963 160.682 13.1797L160.871 13.9801C160.785 14.0133 160.679 14.0431 160.553 14.0696C160.427 14.0994 160.271 14.1143 160.085 14.1143C159.76 14.1143 159.447 14.0431 159.146 13.9006C158.847 13.758 158.602 13.5459 158.41 13.2642C158.218 12.9825 158.121 12.6328 158.121 12.2152V4.53409ZM165.502 14.1591C164.79 14.1591 164.173 13.9934 163.653 13.6619C163.132 13.3272 162.73 12.8648 162.445 12.2749C162.163 11.6816 162.022 10.9988 162.022 10.2266C162.022 9.45762 162.163 8.77486 162.445 8.17827C162.73 7.57836 163.123 7.10937 163.623 6.77131C164.127 6.42992 164.708 6.25923 165.368 6.25923C165.782 6.25923 166.182 6.33546 166.566 6.48793C166.951 6.63707 167.295 6.86742 167.6 7.17898C167.908 7.48722 168.152 7.87666 168.331 8.3473C168.51 8.81463 168.6 9.36813 168.6 10.0078V10.4453H162.634V9.66477H167.695C167.695 9.17424 167.595 8.73343 167.396 8.34233C167.201 7.94792 166.927 7.63636 166.576 7.40767C166.228 7.17898 165.825 7.06463 165.368 7.06463C164.884 7.06463 164.458 7.19389 164.09 7.45241C163.722 7.71094 163.434 8.05232 163.225 8.47656C163.02 8.9008 162.915 9.36482 162.912 9.86861V10.3359C162.912 10.9425 163.016 11.4728 163.225 11.9268C163.437 12.3776 163.737 12.7273 164.125 12.9759C164.513 13.2244 164.972 13.3487 165.502 13.3487C165.864 13.3487 166.18 13.2924 166.452 13.1797C166.727 13.067 166.957 12.9162 167.143 12.7273C167.332 12.535 167.474 12.3246 167.57 12.0959L168.411 12.3693C168.295 12.6908 168.104 12.9875 167.839 13.2592C167.577 13.531 167.249 13.7498 166.855 13.9155C166.463 14.0779 166.013 14.1591 165.502 14.1591ZM170.41 14V6.36364H171.27V7.53693H171.334C171.487 7.15246 171.752 6.84257 172.13 6.60724C172.511 6.36861 172.942 6.24929 173.422 6.24929C173.495 6.24929 173.577 6.25095 173.666 6.25426C173.756 6.25758 173.83 6.26089 173.89 6.2642V7.16406C173.85 7.15743 173.78 7.14749 173.681 7.13423C173.582 7.12098 173.474 7.11435 173.358 7.11435C172.96 7.11435 172.605 7.19886 172.294 7.3679C171.986 7.53362 171.742 7.76397 171.563 8.05895C171.384 8.35393 171.295 8.69034 171.295 9.06818V14H170.41Z" fill="#EBEBEB" fill-opacity="0.6"/>
<g clip-path="url(#clip0_24_5)">
<path d="M40 22.5044C32.8282 15.8743 28.9449 26.3152 20.8906 21.9555C21.865 27.0103 33.126 34.6001 39.9999 25.5499C46.8736 34.6001 58.1346 27.0102 59.1092 21.9555C51.055 26.3151 47.1717 15.8743 40 22.5044Z" fill="white"/>
<path d="M32.1048 30.6566C31.2487 30.6566 30.37 30.5532 29.4747 30.3439C27.2523 29.8246 25.0355 28.6578 23.2327 27.0586C21.496 25.518 20.3235 23.7195 20.016 22.1241C19.951 21.7861 20.0864 21.4407 20.364 21.2372C20.6417 21.0337 21.0118 21.0084 21.3146 21.1723C24.744 23.0285 27.2761 21.928 29.9567 20.7628C31.5094 20.088 33.1149 19.3901 34.8576 19.3455C36.6326 19.299 38.3219 19.9484 39.9999 21.3231C41.678 19.9483 43.3679 19.2993 45.1423 19.3455C46.8848 19.3901 48.4904 20.0879 50.0432 20.7628C52.724 21.928 55.2559 23.0285 58.6853 21.1723C58.9881 21.0084 59.3582 21.0336 59.6359 21.2373C59.9136 21.4408 60.0491 21.7862 59.9839 22.1242C59.6762 23.7196 58.5036 25.5181 56.7668 27.0588C54.9638 28.6581 52.747 29.8249 50.5245 30.3441C46.4935 31.2863 42.7943 30.0826 39.9999 26.9508C37.8259 29.3871 35.1041 30.6565 32.1048 30.6566ZM22.5509 23.6066C23.8832 25.681 26.6617 27.8573 29.8801 28.6094C32.4673 29.2138 36.1999 29.0805 39.2907 25.0113C39.4592 24.7895 39.7215 24.6592 39.9999 24.6592C40.2784 24.6592 40.5409 24.7895 40.7092 25.0113C43.7996 29.0804 47.5323 29.2139 50.1192 28.6095C53.3377 27.8574 56.1164 25.681 57.4488 23.6066C54.2504 24.5339 51.6632 23.4093 49.3331 22.3966C46.3292 21.0909 43.9565 20.0597 40.6046 23.1584C40.2632 23.4739 39.7367 23.4739 39.3953 23.1584C36.0434 20.0596 33.6708 21.0909 30.6668 22.3966C28.9478 23.1437 27.0883 23.9516 24.9473 23.9518C24.1862 23.9518 23.3896 23.8498 22.5509 23.6066Z" fill="white"/>
<rect x="22" y="15" width="6" height="2" rx="1" fill="white"/>
<rect x="30" y="15" width="6" height="2" rx="1" fill="white"/>
<rect x="46" y="15" width="6" height="2" rx="1" fill="white"/>
<rect x="54" y="15" width="6" height="2" rx="1" fill="white"/>
<rect x="38" y="15" width="6" height="2" rx="1" fill="white"/>
<rect x="26" y="33" width="6" height="2" rx="1" fill="white"/>
<rect x="42" y="33" width="6" height="2" rx="1" fill="white"/>
<rect x="50" y="33" width="6" height="2" rx="1" fill="white"/>
<rect x="34" y="33" width="6" height="2" rx="1" fill="white"/>
<rect x="22" y="37" width="38" height="2" rx="1" fill="white"/>
</g>
<rect x="18" y="33" width="6" height="2" rx="1" fill="white"/>
<rect x="6" y="33" width="8" height="2" rx="1" fill="white"/>
<rect x="6" y="27" width="6" height="2" rx="1" fill="white"/>
<rect x="14" y="27" width="6" height="2" rx="1" fill="white"/>
<rect x="6" y="37" width="4" height="2" rx="1" fill="white"/>
<rect x="12" y="37" width="4" height="2" rx="1" fill="white"/>
<rect x="18" y="37" width="2" height="2" rx="1" fill="white"/>
<rect x="62" y="37" width="6" height="2" rx="1" fill="white"/>
<rect x="70" y="37" width="4" height="2" rx="1" fill="white"/>
<rect x="6" y="19" width="10" height="2" rx="1" fill="white"/>
<rect x="6" y="23" width="8" height="2" rx="1" fill="white"/>
<rect x="62" y="15" width="6" height="2" rx="1" fill="white"/>
<rect x="70" y="15" width="6" height="2" rx="1" fill="white"/>
<rect x="0.5" y="9.5" width="79" height="33" rx="3.5" stroke="white"/>
<rect x="6" y="15" width="14" height="2" rx="1" fill="white"/>
<rect x="62" y="19" width="14" height="2" rx="1" fill="white"/>
<rect x="66" y="23" width="10" height="2" rx="1" fill="white"/>
<rect x="68" y="27" width="8" height="2" rx="1" fill="white"/>
<rect x="66" y="33" width="10" height="2" rx="1" fill="white"/>
<rect x="62" y="27" width="4" height="2" rx="1" fill="white"/>
<rect x="60" y="33" width="4" height="2" rx="1" fill="white"/>
<defs>
<clipPath id="clip0_24_5">
<rect width="40" height="40" fill="white" transform="translate(20 5)"/>
</clipPath>
</defs>
</svg>
